<?xml version="1.0" encoding="UTF-8" standalone="no"?>
<!DOCTYPE svg PUBLIC "-//W3C//DTD SVG 1.1//EN"
 "http://www.w3.org/Graphics/SVG/1.1/DTD/svg11.dtd">
<!-- Generated by graphviz version 2.43.0 (0)
 -->
<!-- Title: G Pages: 1 -->
<svg width="1549pt" height="500pt"
 viewBox="0.00 0.00 1549.48 500.00" xmlns="http://www.w3.org/2000/svg" xmlns:xlink="http://www.w3.org/1999/xlink">
<g id="graph0" class="graph" transform="scale(1 1) rotate(0) translate(4 496)">
<title>G</title>
<polygon fill="white" stroke="transparent" points="-4,4 -4,-496 1545.48,-496 1545.48,4 -4,4"/>
<!-- v6 -->
<g id="node1" class="node">
<title>v6</title>
<ellipse fill="none" stroke="black" cx="813.12" cy="-192" rx="53.89" ry="18"/>
<text text-anchor="middle" x="813.12" y="-188.3" font-family="Times,serif" font-size="14.00">(6) resultSet</text>
</g>
<!-- v7 -->
<g id="node5" class="node">
<title>v7</title>
<ellipse fill="none" stroke="black" cx="993.12" cy="-105" rx="79.89" ry="18"/>
<text text-anchor="middle" x="993.12" y="-101.3" font-family="Times,serif" font-size="14.00">(7) definitionResult</text>
</g>
<!-- v6&#45;&gt;v7 -->
<g id="edge2" class="edge">
<title>v6&#45;&gt;v7</title>
<path fill="none" stroke="black" d="M842.84,-176.96C872.29,-163.06 917.66,-141.63 950.85,-125.96"/>
<polygon fill="black" stroke="black" points="952.75,-128.93 960.3,-121.5 949.76,-122.6 952.75,-128.93"/>
<text text-anchor="middle" x="990.12" y="-144.8" font-family="Times,serif" font-size="14.00">(9) textDocument/definition</text>
</g>
<!-- v13 -->
<g id="node7" class="node">
<title>v13</title>
<ellipse fill="none" stroke="black" cx="450.12" cy="-105" rx="283.25" ry="18"/>
<text text-anchor="middle" x="450.12" y="-101.3" font-family="Times,serif" font-size="14.00">(13) moniker {&quot;Kind&quot;:&quot;export&quot;,&quot;Scheme&quot;:&quot;gomod&quot;,&quot;Identifier&quot;:&quot;smollest&quot;}</text>
</g>
<!-- v6&#45;&gt;v13 -->
<g id="edge4" class="edge">
<title>v6&#45;&gt;v13</title>
<path fill="none" stroke="black" d="M770.41,-181C711.49,-167.2 604.16,-142.07 530.09,-124.73"/>
<polygon fill="black" stroke="black" points="530.86,-121.31 520.33,-122.44 529.26,-128.13 530.86,-121.31"/>
<text text-anchor="middle" x="689.62" y="-144.8" font-family="Times,serif" font-size="14.00">(16) moniker</text>
</g>
<!-- v17 -->
<g id="node2" class="node">
<title>v17</title>
<ellipse fill="none" stroke="black" cx="765.12" cy="-279" rx="285.15" ry="18"/>
<text text-anchor="middle" x="765.12" y="-275.3" font-family="Times,serif" font-size="14.00">(17) range {&quot;start&quot;:{&quot;line&quot;:0,&quot;character&quot;:8},&quot;end&quot;:{&quot;line&quot;:0,&quot;character&quot;:16}}</text>
</g>
<!-- v17&#45;&gt;v6 -->
<g id="edge8" class="edge">
<title>v17&#45;&gt;v6</title>
<path fill="none" stroke="black" d="M774.83,-260.8C781.64,-248.74 790.86,-232.4 798.55,-218.79"/>
<polygon fill="black" stroke="black" points="801.71,-220.31 803.58,-209.89 795.62,-216.87 801.71,-220.31"/>
<text text-anchor="middle" x="816.12" y="-231.8" font-family="Times,serif" font-size="14.00">(18) next</text>
</g>
<!-- v2 -->
<g id="node3" class="node">
<title>v2</title>
<ellipse fill="none" stroke="black" cx="933.12" cy="-474" rx="48.19" ry="18"/>
<text text-anchor="middle" x="933.12" y="-470.3" font-family="Times,serif" font-size="14.00">(2) project</text>
</g>
<!-- v3 -->
<g id="node6" class="node">
<title>v3</title>
<ellipse fill="none" stroke="black" cx="1154.12" cy="-333" rx="387.23" ry="18"/>
<text text-anchor="middle" x="1154.12" y="-329.3" font-family="Times,serif" font-size="14.00">(3) document &quot;file:///home/tjdevries/sourcegraph/lsif&#45;go.git/imports_work/docs/examples/smollest/lib.go&quot;</text>
</g>
<!-- v2&#45;&gt;v3 -->
<g id="edge9" class="edge">
<title>v2&#45;&gt;v3</title>
<path fill="none" stroke="black" d="M975.56,-465.27C1014.65,-456.35 1072.45,-438.4 1112.12,-405 1126.23,-393.12 1136.77,-375.22 1143.76,-360.37"/>
<polygon fill="black" stroke="black" points="1147,-361.71 1147.85,-351.14 1140.6,-358.87 1147,-361.71"/>
<text text-anchor="middle" x="1120.12" y="-426.8" font-family="Times,serif" font-size="14.00">(28) contains</text>
</g>
<!-- v4 -->
<g id="node9" class="node">
<title>v4</title>
<ellipse fill="none" stroke="black" cx="713.12" cy="-387" rx="389.93" ry="18"/>
<text text-anchor="middle" x="713.12" y="-383.3" font-family="Times,serif" font-size="14.00">(4) document &quot;file:///home/tjdevries/sourcegraph/lsif&#45;go.git/imports_work/docs/examples/smollest/sub.go&quot;</text>
</g>
<!-- v2&#45;&gt;v4 -->
<g id="edge10" class="edge">
<title>v2&#45;&gt;v4</title>
<path fill="none" stroke="black" d="M900.65,-460.46C865.39,-446.83 808.5,-424.85 766.61,-408.67"/>
<polygon fill="black" stroke="black" points="767.71,-405.34 757.12,-405 765.18,-411.87 767.71,-405.34"/>
<text text-anchor="middle" x="872.12" y="-426.8" font-family="Times,serif" font-size="14.00">(28) contains</text>
</g>
<!-- v5 -->
<g id="node4" class="node">
<title>v5</title>
<ellipse fill="none" stroke="black" cx="1067.12" cy="-18" rx="280.55" ry="18"/>
<text text-anchor="middle" x="1067.12" y="-14.3" font-family="Times,serif" font-size="14.00">(5) range {&quot;start&quot;:{&quot;line&quot;:1,&quot;character&quot;:8},&quot;end&quot;:{&quot;line&quot;:1,&quot;character&quot;:16}}</text>
</g>
<!-- v5&#45;&gt;v6 -->
<g id="edge6" class="edge">
<title>v5&#45;&gt;v6</title>
<path fill="none" stroke="black" d="M966.39,-34.87C929.82,-44.81 890.34,-60.92 861.12,-87 838.37,-107.3 825.65,-140.59 819.11,-164.02"/>
<polygon fill="black" stroke="black" points="815.72,-163.15 816.6,-173.71 822.5,-164.9 815.72,-163.15"/>
<text text-anchor="middle" x="882.62" y="-101.3" font-family="Times,serif" font-size="14.00">(8) next</text>
</g>
<!-- v7&#45;&gt;v5 -->
<g id="edge3" class="edge">
<title>v7&#45;&gt;v5</title>
<path fill="none" stroke="black" d="M1007.74,-87.21C1018.51,-74.83 1033.34,-57.8 1045.48,-43.85"/>
<polygon fill="black" stroke="black" points="1048.35,-45.89 1052.27,-36.05 1043.07,-41.29 1048.35,-45.89"/>
<text text-anchor="middle" x="1060.12" y="-57.8" font-family="Times,serif" font-size="14.00">(10) item</text>
</g>
<!-- v3&#45;&gt;v5 -->
<g id="edge5" class="edge">
<title>v3&#45;&gt;v5</title>
<path fill="none" stroke="black" d="M1142.11,-314.95C1130.33,-296.51 1114.12,-265.8 1114.12,-236.5 1114.12,-236.5 1114.12,-236.5 1114.12,-104 1114.12,-81.95 1101.85,-60.24 1089.85,-44.29"/>
<polygon fill="black" stroke="black" points="1092.26,-41.69 1083.29,-36.05 1086.78,-46.05 1092.26,-41.69"/>
<text text-anchor="middle" x="1150.12" y="-188.3" font-family="Times,serif" font-size="14.00">(26) contains</text>
</g>
<!-- v14 -->
<g id="node8" class="node">
<title>v14</title>
<ellipse fill="none" stroke="black" cx="384.12" cy="-18" rx="384.23" ry="18"/>
<text text-anchor="middle" x="384.12" y="-14.3" font-family="Times,serif" font-size="14.00">(14) packageInformation {&quot;Name&quot;:&quot;https://github.com/sourcegraph/lsif&#45;go&quot;,&quot;Version&quot;:&quot;16da5d4980c1&quot;}</text>
</g>
<!-- v13&#45;&gt;v14 -->
<g id="edge7" class="edge">
<title>v13&#45;&gt;v14</title>
<path fill="none" stroke="black" d="M436.76,-86.8C427.28,-74.59 414.39,-57.99 403.74,-44.28"/>
<polygon fill="black" stroke="black" points="406.35,-41.93 397.45,-36.18 400.82,-46.22 406.35,-41.93"/>
<text text-anchor="middle" x="489.12" y="-57.8" font-family="Times,serif" font-size="14.00">(15) packageInformation</text>
</g>
<!-- v4&#45;&gt;v17 -->
<g id="edge1" class="edge">
<title>v4&#45;&gt;v17</title>
<path fill="none" stroke="black" d="M696.31,-368.82C692.17,-363.53 688.29,-357.39 686.12,-351 680.95,-335.86 677.39,-328.41 686.12,-315 689.24,-310.21 693.18,-306.06 697.63,-302.49"/>
<polygon fill="black" stroke="black" points="699.87,-305.19 706.12,-296.63 695.9,-299.43 699.87,-305.19"/>
<text text-anchor="middle" x="722.12" y="-329.3" font-family="Times,serif" font-size="14.00">(27) contains</text>
</g>
</g>
</svg>
